<svg width="1700" height="1368" xmlns="http://www.w3.org/2000/svg" xmlns:xlink="http://www.w3.org/1999/xlink" overflow="hidden"><defs><clipPath id="clip0"><rect x="205" y="152" width="1700" height="1368"/></clipPath></defs><g clip-path="url(#clip0)" transform="translate(-205 -152)"><path d="M1878.27 194.842C1877.61 206.068 1873 214.957 1864.41 221.57L1189.23 787.657C1181.3 794.245 1172.39 797.225 1162.49 796.564 1151.94 796.564 1143.02 792.934 1135.77 785.685L791.244 441.279 287.336 856.937C280.749 862.875 272.49 865.84 262.586 865.84 249.395 865.84 239.177 861.217 231.896 851.978 224.645 843.421 221.664 833.825 222.976 823.274 223.637 812.063 228.265 803.145 236.843 796.56L768.471 357.15C776.384 350.566 785.294 347.582 795.194 348.243 805.748 348.908 814.668 352.538 821.92 359.151L1166.44 703.546 1813.9 161.212C1822.46 153.95 1832.03 150.981 1842.61 152.307 1853.83 152.97 1862.73 157.581 1869.34 166.169 1876.59 174.715 1879.56 184.283 1878.25 194.832ZM1905 396.737 1905 1480.42C1905 1491.64 1901.37 1501.2 1894.11 1509.12 1886.19 1516.38 1876.62 1520 1865.4 1520L1575.34 1520C1564.76 1520 1555.19 1516.38 1546.62 1509.12 1538.69 1499.87 1535.06 1490.3 1535.74 1480.42L1537.72 646.132C1539.03 634.245 1543.65 624.345 1551.58 616.449L1839.67 367.047C1852.2 356.496 1866.39 354.524 1882.25 361.109 1897.42 369.019 1905 380.881 1905 396.716ZM1028.85 894.537 1028.85 1480.42C1028.85 1491.64 1025.22 1501.2 1017.97 1509.12 1010.04 1516.38 1000.47 1520 989.254 1520L699.203 1520C688.624 1520 679.053 1516.38 670.489 1509.12 662.562 1499.89 658.931 1490.32 659.607 1480.42L661.583 694.625C662.895 682.753 667.52 672.867 675.45 664.942L726.912 620.39C734.839 613.141 744.078 609.839 754.646 610.49 765.197 611.151 774.117 615.431 781.369 623.356L1017.99 866.809C1025.22 874.086 1028.85 883.308 1028.85 894.548ZM1112.02 997.465 1400.1 747.067C1412.65 736.52 1426.84 734.544 1442.68 741.129 1458.52 749.043 1466.45 760.929 1466.45 776.75L1466.45 1480.4C1466.45 1491.63 1462.49 1501.18 1454.56 1509.1 1447.31 1516.37 1438.07 1519.98 1426.85 1519.98L1137.75 1520C1126.54 1520 1117.3 1516.38 1110.05 1509.12 1102.12 1501.19 1098.16 1491.64 1098.16 1480.41L1098.16 1028.14C1098.16 1016.91 1102.77 1006.71 1112.02 997.473ZM1177.35 1045.94 1177.35 1440.82 1387.24 1440.82 1387.24 863.843ZM1825.8 1440.82 1825.8 483.813 1616.92 664.914 1614.94 1440.81ZM949.654 910.358 750.662 704.5 740.758 713.404 738.781 1440.81 949.654 1440.81ZM235.867 1043.97 523.945 795.571C536.497 785.024 550.682 783.02 566.526 789.633 582.365 797.547 590.293 809.751 590.293 826.247L590.293 1480.41C590.293 1491.64 586.329 1501.19 578.402 1509.12 571.151 1516.38 561.912 1520 550.696 1520L261.596 1520C250.381 1520 241.142 1516.38 233.891 1509.12 225.964 1501.19 222 1491.64 222 1480.41L222 1073.66C222 1063.12 226.625 1053.22 235.867 1043.98ZM301.196 1092.47 301.196 1440.83 511.086 1440.83 511.086 912.347Z" fill="#70AD47" fill-rule="evenodd"/><text font-family="Calibri,Calibri_MSFontService,sans-serif" font-weight="400" font-size="83" transform="matrix(1 0 0 1 254.871 863)">c</text></g></svg>