<svg width="1332" height="1290" xmlns="http://www.w3.org/2000/svg" xmlns:xlink="http://www.w3.org/1999/xlink" overflow="hidden"><defs><clipPath id="clip0"><rect x="1531" y="375" width="1332" height="1290"/></clipPath></defs><g clip-path="url(#clip0)" transform="translate(-1531 -375)"><path d="M2818.01 1110C2794 1110 2773.01 1130.99 2773.01 1155L2773.01 1463.99C2773.01 1523.99 2725.02 1574.99 2662 1574.99L1732 1574.99C1672 1574.99 1621 1527 1621 1463.99L1621 1155.01C1621 1131.01 1600 1110.01 1576 1110.01 1552 1110.01 1531 1131.01 1531 1155.01L1531 1464.01C1531 1575.01 1621 1665 1732 1665L2662 1665C2773.01 1665 2863 1575.01 2863 1464.01L2863 1155.01C2863 1131.01 2845 1110 2818 1110Z" fill="#70AD47" fill-rule="evenodd"/><path d="M2167.5 1266C2170.5 1266 2170.5 1266 2167.5 1266 2170.5 1266 2170.5 1266 2167.5 1266 2173.5 1271.99 2176.51 1275 2182.5 1275 2188.5 1278 2194.51 1278 2200.5 1278 2206.49 1278 2212.5 1278 2218.5 1275 2224.49 1272 2227.5 1269.01 2233.5 1266L2542.5 956.999C2560.5 939.003 2560.5 912.001 2542.5 894.008 2524.51 876.012 2497.5 876.012 2479.51 894.008L2245.5 1128.01 2245.5 419.998C2245.5 395.995 2224.51 375 2200.5 375 2176.49 375 2155.5 395.991 2155.5 419.998L2155.5 1124.97 1921.49 890.967C1903.49 872.971 1876.49 872.971 1858.5 890.967 1840.5 908.964 1840.5 935.966 1858.5 953.958Z" fill="#70AD47" fill-rule="evenodd"/></g></svg>