<svg width="1402" height="1568" xmlns="http://www.w3.org/2000/svg" xmlns:xlink="http://www.w3.org/1999/xlink" overflow="hidden"><defs><clipPath id="clip0"><rect x="1499" y="206" width="1402" height="1568"/></clipPath></defs><g clip-path="url(#clip0)" transform="translate(-1499 -206)"><path d="M2117.52 1774 2282.47 1774 2282.45 1774C2315.26 1773.95 2346.7 1760.9 2369.89 1737.69 2393.09 1714.49 2406.13 1683.02 2406.16 1650.21L2406.16 1085.35 2880.99 395.083C2892.95 377.441 2899.82 356.843 2900.86 335.552 2901.91 314.249 2897.06 293.082 2886.87 274.362 2875.15 253.321 2857.95 235.843 2837.09 223.811 2816.24 211.778 2792.5 205.63 2768.44 206.017L1631.52 206.017C1607.46 205.63 1583.72 211.778 1562.87 223.811 1542.01 235.844 1524.81 253.321 1513.1 274.362 1502.87 293.207 1498.05 314.498 1499.16 335.909 1500.27 357.324 1507.26 378.004 1519.38 395.688L1993.79 1085.36 1993.79 1650.21C1993.81 1683.02 2006.86 1714.5 2030.06 1737.69 2053.25 1760.9 2084.69 1773.96 2117.5 1774ZM1587.69 349.494C1580.17 338.815 1579.44 324.778 1585.8 313.38 1595.3 297.285 1612.89 287.738 1631.54 288.567L2768.46 288.567C2787.11 287.738 2804.7 297.285 2814.2 313.38 2820.51 324.529 2819.93 338.303 2812.71 348.885L2330.99 1049.13C2326.24 1056.01 2323.7 1064.18 2323.7 1072.53L2323.7 1650.23C2323.68 1673.01 2305.22 1691.47 2282.45 1691.48L2117.52 1691.48C2094.75 1691.47 2076.29 1673.01 2076.28 1650.23L2076.28 1072.53C2076.28 1064.18 2073.74 1056.01 2068.99 1049.13Z" fill="#4472C4" fill-rule="evenodd"/></g></svg>