<svg width="856" height="855" xmlns="http://www.w3.org/2000/svg" xmlns:xlink="http://www.w3.org/1999/xlink" overflow="hidden"><defs><clipPath id="clip0"><rect x="1727" y="1122" width="856" height="855"/></clipPath></defs><g clip-path="url(#clip0)" transform="translate(-1727 -1122)"><path d="M1951.07 1651.84C1951.07 1688.05 1970.41 1721.52 2001.81 1739.62 2033.2 1757.73 2071.89 1757.73 2103.28 1739.62 2134.68 1721.51 2154.02 1688.05 2154.02 1651.84 2154.02 1639.67 2163.9 1629.8 2176.09 1629.8 2188.27 1629.8 2198.15 1639.67 2198.15 1651.84 2198.15 1690.41 2182.8 1727.41 2155.49 1754.69 2128.18 1781.96 2091.13 1797.28 2052.51 1797.27 2013.89 1797.26 1976.86 1781.93 1949.56 1754.64 1922.25 1727.36 1906.92 1690.36 1906.94 1651.78 1906.95 1613.2 1922.31 1576.21 1949.64 1548.94 1976.96 1521.68 2014.01 1506.38 2052.63 1506.4 2064.82 1506.4 2074.69 1516.26 2074.69 1528.44 2074.69 1540.61 2064.82 1550.47 2052.63 1550.47 2025.71 1550.47 1999.89 1561.15 1980.84 1580.16 1961.79 1599.16 1951.08 1624.94 1951.06 1651.84ZM1774.57 1727.2 1806.61 1732.84 1806.6 1732.84C1810.66 1744.94 1815.62 1756.73 1821.43 1768.1L1802.72 1794.54C1795 1805.5 1791.4 1818.84 1792.56 1832.19 1793.72 1845.55 1799.57 1858.06 1809.08 1867.52L1836.34 1894.76C1845.82 1904.25 1858.34 1910.09 1871.71 1911.25 1885.08 1912.42 1898.43 1908.82 1909.41 1901.1L1935.89 1882.42C1947.41 1888.24 1959.36 1893.19 1971.63 1897.23L1977.28 1929.23 1977.27 1929.22C1979.42 1942.51 1986.23 1954.61 1996.48 1963.36 2006.72 1972.11 2019.74 1976.94 2033.22 1977L2071.78 1977C2085.22 1977.03 2098.23 1972.31 2108.52 1963.68 2118.8 1955.05 2125.7 1943.06 2127.99 1929.84L2133.64 1897.85C2145.76 1893.79 2157.56 1888.84 2168.94 1883.03L2195.42 1901.72 2195.42 1901.73C2206.4 1909.42 2219.74 1913.01 2233.11 1911.84 2246.47 1910.68 2259 1904.85 2268.48 1895.37L2296.19 1868.14C2305.69 1858.67 2311.54 1846.16 2312.7 1832.81 2313.87 1819.45 2310.27 1806.12 2302.55 1795.15L2283.84 1768.71 2283.84 1768.72C2289.64 1757.34 2294.6 1745.56 2298.66 1733.45L2330.7 1727.81 2330.7 1727.82C2336.68 1727.06 2342.08 1723.88 2345.67 1719.04 2349.24 1714.19 2350.68 1708.09 2349.64 1702.16 2348.6 1696.23 2345.18 1690.98 2340.17 1687.64 2335.16 1684.29 2328.99 1683.14 2323.11 1684.45L2277.66 1692.38 2277.66 1692.38C2269.17 1693.8 2262.27 1700.03 2260.01 1708.33 2255.19 1726.29 2248.04 1743.53 2238.75 1759.64 2234.48 1767.05 2234.89 1776.25 2239.8 1783.26L2266.28 1821.07C2269.87 1826.18 2269.28 1833.13 2264.86 1837.55L2237.59 1864.79C2233.17 1869.2 2226.21 1869.79 2221.1 1866.2L2183.33 1839.76C2176.3 1834.82 2167.03 1834.4 2159.58 1838.7 2143.46 1847.98 2126.2 1855.13 2108.23 1859.94 2099.91 1862.2 2093.68 1869.08 2092.25 1877.57L2084.4 1922.26C2083.33 1928.43 2077.96 1932.93 2071.69 1932.93L2033.22 1932.93C2026.95 1932.93 2021.58 1928.43 2020.51 1922.26L2012.57 1876.87C2011.15 1868.38 2004.91 1861.5 1996.6 1859.24 1978.63 1854.41 1961.36 1847.27 1945.24 1838 1937.79 1833.7 1928.53 1834.11 1921.5 1839.06L1883.73 1865.5C1878.61 1869.09 1871.66 1868.49 1867.23 1864.08L1839.96 1836.85C1835.55 1832.43 1834.95 1825.47 1838.55 1820.37L1865.02 1782.64C1869.97 1775.62 1870.38 1766.37 1866.08 1758.93 1856.79 1743.01 1849.61 1725.94 1844.73 1708.16 1842.47 1699.85 1835.57 1693.63 1827.07 1692.21L1781.63 1684.27C1775.35 1683.1 1770.88 1677.51 1771.12 1671.14L1771.12 1632.62C1771.16 1626.39 1775.66 1621.08 1781.8 1620.02L1827.25 1612.09C1835.75 1610.66 1842.64 1604.43 1844.9 1596.13 1849.72 1578.18 1856.87 1560.93 1866.17 1544.83 1870.47 1537.39 1870.06 1528.14 1865.11 1521.12L1838.63 1483.39C1835.04 1478.28 1835.63 1471.34 1840.05 1466.91L1867.32 1439.67C1871.74 1435.27 1878.7 1434.67 1883.81 1438.26L1921.59 1464.71C1928.61 1469.65 1937.88 1470.06 1945.33 1465.77 1961.27 1456.46 1978.36 1449.27 1996.15 1444.34 2004.47 1442.09 2010.7 1435.2 2012.13 1426.72L2020.07 1381.32C2021.38 1375.45 2020.23 1369.29 2016.88 1364.28 2013.53 1359.28 2008.27 1355.86 2002.33 1354.82 1996.4 1353.78 1990.29 1355.22 1985.44 1358.79 1980.59 1362.37 1977.41 1367.77 1976.65 1373.74L1971.44 1405.83C1959.18 1409.86 1947.23 1414.82 1935.7 1420.64L1909.23 1401.95C1898.25 1394.24 1884.91 1390.64 1871.54 1391.8 1858.17 1392.96 1845.64 1398.8 1836.16 1408.3L1808.89 1435.54C1799.3 1444.95 1793.35 1457.44 1792.1 1470.81 1790.83 1484.18 1794.35 1497.57 1802.01 1508.6L1820.72 1535.05C1814.89 1546.56 1809.93 1558.49 1805.9 1570.75L1773.86 1576.39 1773.86 1576.38C1760.67 1578.75 1748.74 1585.69 1740.17 1595.97 1731.6 1606.26 1726.94 1619.24 1727 1632.62L1727 1671.14C1726.97 1684.54 1731.68 1697.53 1740.3 1707.81 1748.93 1718.08 1760.91 1724.98 1774.13 1727.29ZM2583 1367.74 2583 1398.07C2583.01 1409.73 2578.9 1421.02 2571.39 1429.96 2563.88 1438.89 2553.47 1444.89 2541.96 1446.9L2519.46 1450.87 2519.46 1450.87C2516.69 1458.93 2513.41 1466.82 2509.66 1474.49L2522.81 1493.17C2529.53 1502.71 2532.65 1514.31 2531.63 1525.92 2530.61 1537.53 2525.52 1548.41 2517.25 1556.64L2495.72 1578.15C2487.48 1586.4 2476.59 1591.49 2464.97 1592.5 2453.34 1593.52 2441.73 1590.41 2432.18 1583.7L2413.48 1570.56C2405.8 1574.31 2397.9 1577.58 2389.83 1580.35L2385.86 1602.39C2383.85 1613.88 2377.85 1624.3 2368.91 1631.8 2359.96 1639.3 2348.65 1643.4 2336.97 1643.37L2306.61 1643.37C2294.94 1643.38 2283.63 1639.28 2274.69 1631.78 2265.74 1624.28 2259.73 1613.87 2257.72 1602.39L2253.75 1579.91C2245.67 1577.14 2237.77 1573.87 2230.1 1570.13L2211.39 1583.26C2201.85 1589.96 2190.23 1593.08 2178.61 1592.07 2166.98 1591.05 2156.09 1585.96 2147.85 1577.71L2126.32 1556.2C2118.06 1547.97 2112.97 1537.09 2111.95 1525.48 2110.93 1513.87 2114.05 1502.28 2120.76 1492.74L2133.91 1474.05 2133.91 1474.05C2130.16 1466.39 2126.89 1458.5 2124.11 1450.43L2102.05 1446.9C2090.55 1444.9 2080.11 1438.91 2072.6 1429.98 2065.1 1421.04 2060.99 1409.74 2061.02 1398.07L2061.02 1367.75C2060.99 1356.08 2065.1 1344.78 2072.6 1335.84 2080.11 1326.91 2090.55 1320.91 2102.05 1318.91L2124.56 1314.95C2127.33 1306.88 2130.6 1298.99 2134.35 1291.33L2121.2 1272.64C2114.48 1263.09 2111.36 1251.48 2112.38 1239.85 2113.4 1228.23 2118.49 1217.33 2126.76 1209.09L2147.85 1188.11C2156.09 1179.85 2166.98 1174.77 2178.61 1173.75 2190.23 1172.74 2201.84 1175.85 2211.39 1182.56L2230.1 1195.69C2237.76 1191.8 2245.66 1188.38 2253.75 1185.46L2257.72 1162.99 2257.72 1162.99C2259.73 1151.5 2265.74 1141.1 2274.69 1133.6 2283.63 1126.1 2294.94 1121.99 2306.61 1122L2336.97 1122C2348.64 1121.98 2359.96 1126.08 2368.91 1133.58 2377.85 1141.08 2383.85 1151.49 2385.86 1162.99L2389.83 1185.47 2389.83 1185.46C2397.9 1188.24 2405.8 1191.51 2413.48 1195.25L2432.18 1182.12C2441.73 1175.41 2453.34 1172.29 2464.97 1173.31 2476.59 1174.33 2487.48 1179.41 2495.72 1187.67L2516.82 1209.18C2525.08 1217.41 2530.17 1228.28 2531.19 1239.9 2532.21 1251.5 2529.08 1263.11 2522.38 1272.64L2509.23 1291.33C2512.97 1298.99 2516.24 1306.88 2519.02 1314.95L2541.52 1318.92C2553.11 1320.82 2563.65 1326.77 2571.24 1335.72 2578.84 1344.67 2583.01 1356.02 2583 1367.75ZM2538.88 1367.74C2538.87 1365.1 2536.98 1362.84 2534.37 1362.37L2498.55 1356.11C2490.05 1354.69 2483.16 1348.46 2480.9 1340.16 2477.19 1326.4 2471.71 1313.18 2464.58 1300.84 2460.27 1293.41 2460.69 1284.16 2465.63 1277.14L2486.55 1247.34 2486.54 1247.34C2488.09 1245.16 2487.84 1242.17 2485.93 1240.29L2464.4 1218.78C2462.49 1216.91 2459.53 1216.65 2457.33 1218.17L2427.68 1239.14C2420.66 1244.09 2411.39 1244.5 2403.95 1240.2 2391.6 1233.08 2378.37 1227.59 2364.59 1223.9 2356.27 1221.64 2350.04 1214.75 2348.62 1206.27L2342.44 1170.48C2341.97 1167.88 2339.7 1165.99 2337.06 1165.99L2306.61 1165.99C2303.94 1165.99 2301.66 1167.93 2301.23 1170.57L2294.97 1206.36C2293.54 1214.84 2287.31 1221.73 2278.99 1223.98 2265.22 1227.68 2251.99 1233.16 2239.63 1240.29 2232.19 1244.59 2222.93 1244.17 2215.9 1239.23L2186.07 1218.34 2186.07 1218.34C2183.88 1216.8 2180.89 1217.05 2179.01 1218.96L2157.47 1240.47C2155.57 1242.35 2155.31 1245.34 2156.86 1247.52L2177.78 1277.22C2182.72 1284.24 2183.14 1293.5 2178.83 1300.93 2171.7 1313.27 2166.21 1326.49 2162.51 1340.24 2160.24 1348.55 2153.36 1354.78 2144.86 1356.2L2109.03 1362.46C2106.43 1362.92 2104.53 1365.19 2104.53 1367.84L2104.53 1398.16 2104.53 1398.16C2104.54 1400.83 2106.48 1403.1 2109.12 1403.54L2144.94 1409.79 2144.95 1409.79C2153.44 1411.21 2160.34 1417.44 2162.6 1425.74 2166.3 1439.5 2171.79 1452.72 2178.92 1465.06 2183.22 1472.49 2182.81 1481.74 2177.86 1488.76L2156.94 1518.56C2155.39 1520.74 2155.66 1523.73 2157.57 1525.61L2179.1 1547.12C2180.98 1549.03 2183.97 1549.28 2186.16 1547.73L2215.99 1526.84 2215.98 1526.85C2223.01 1521.91 2232.28 1521.49 2239.72 1525.79 2251.92 1532.81 2264.97 1538.23 2278.55 1541.92 2286.86 1544.17 2293.1 1551.06 2294.52 1559.55L2300.79 1595.33 2300.79 1595.33C2301.26 1597.94 2303.53 1599.83 2306.17 1599.83L2336.53 1599.83 2336.53 1599.83C2339.18 1599.83 2341.44 1597.94 2341.91 1595.33L2348.18 1559.55 2348.18 1559.55C2349.6 1551.06 2355.84 1544.17 2364.15 1541.92 2377.92 1538.22 2391.15 1532.74 2403.51 1525.61 2410.95 1521.32 2420.21 1521.73 2427.25 1526.67L2457.08 1547.56 2457.07 1547.56C2459.26 1549.11 2462.25 1548.85 2464.13 1546.94L2485.67 1525.44C2487.57 1523.55 2487.83 1520.57 2486.28 1518.38L2465.72 1488.68C2460.81 1481.68 2460.4 1472.47 2464.66 1465.06 2471.77 1452.83 2477.26 1439.73 2480.99 1426.1 2483.25 1417.79 2490.14 1411.57 2498.63 1410.15L2534.46 1403.54C2537.07 1403.06 2538.96 1400.8 2538.96 1398.16ZM2425.92 1382.91C2425.92 1410.49 2414.95 1436.95 2395.42 1456.45 2375.89 1475.96 2349.41 1486.92 2321.79 1486.92 2294.18 1486.92 2267.69 1475.96 2248.16 1456.45 2228.63 1436.95 2217.66 1410.49 2217.66 1382.91 2217.66 1355.32 2228.63 1328.87 2248.16 1309.36 2267.69 1289.86 2294.17 1278.9 2321.79 1278.9 2349.4 1278.92 2375.87 1289.89 2395.4 1309.38 2414.92 1328.89 2425.9 1355.33 2425.92 1382.91ZM2381.8 1382.91C2381.8 1367.01 2375.47 1351.77 2364.22 1340.53 2352.97 1329.29 2337.7 1322.97 2321.79 1322.97 2305.88 1322.97 2290.61 1329.29 2279.36 1340.53 2268.11 1351.76 2261.79 1367.01 2261.79 1382.91 2261.79 1398.8 2268.11 1414.05 2279.36 1425.29 2290.61 1436.53 2305.88 1442.84 2321.79 1442.84 2337.7 1442.84 2352.97 1436.53 2364.22 1425.29 2375.47 1414.05 2381.8 1398.8 2381.8 1382.91Z" fill="#A6A6A6" fill-rule="evenodd"/></g></svg>