<svg width="1164" height="1015" xmlns="http://www.w3.org/2000/svg" xmlns:xlink="http://www.w3.org/1999/xlink" overflow="hidden"><defs><clipPath id="clip0"><rect x="227" y="531" width="1164" height="1015"/></clipPath></defs><g clip-path="url(#clip0)" transform="translate(-227 -531)"><path d="M664 673 1391 673 1391 891 664 891Z" fill="#A6A6A6" fill-rule="evenodd"/><path d="M664 1182 1391 1182 1391 1400 664 1400Z" fill="#A6A6A6" fill-rule="evenodd"/><path d="M360.388 633.748 276.948 710.195 227 650.259 362.734 531 445.001 531 445.001 964 360.384 964Z" fill="#A6A6A6" fill-rule="evenodd"/><path d="M227.006 1449.5 388.996 1299.58C397.245 1291.89 405.49 1283.19 413.739 1273.48 421.984 1263.77 426.106 1252.44 426.106 1239.49 426.106 1224.93 421.002 1213.5 410.791 1205.2 400.583 1196.9 388.602 1192.76 374.859 1192.76 358.365 1192.76 345.505 1198.02 336.275 1208.54 327.046 1219.06 321.843 1232.01 320.664 1247.38L232.303 1240.71C233.481 1218.45 237.998 1199.13 245.853 1182.74 253.708 1166.35 264.112 1152.7 277.075 1141.77 290.034 1130.85 305.251 1122.65 322.725 1117.19 340.2 1111.73 359.15 1109 379.572 1109 398.423 1109 416.091 1111.73 432.585 1117.19 449.083 1122.66 463.417 1130.75 475.587 1141.47 487.761 1152.2 497.287 1165.65 504.16 1181.83 511.03 1198.02 514.467 1216.83 514.467 1238.28 514.467 1252.04 513.091 1264.48 510.344 1275.61 507.593 1286.73 503.766 1296.85 498.855 1305.95 493.948 1315.06 488.155 1323.45 481.479 1331.14 474.802 1338.83 467.539 1346.32 459.684 1353.6L333.031 1465.88 518 1465.88 518 1546 227 1546Z" fill="#A6A6A6" fill-rule="evenodd"/></g></svg>