<svg width="1280" height="1280" xmlns="http://www.w3.org/2000/svg" xmlns:xlink="http://www.w3.org/1999/xlink" overflow="hidden"><defs><clipPath id="clip0"><rect x="1352" y="480" width="1280" height="1280"/></clipPath></defs><g clip-path="url(#clip0)" transform="translate(-1352 -480)"><path d="M2605 1605.59 2301.95 1302.54C2402.81 1158.65 2424.51 973.667 2359.69 810.349 2294.88 647.018 2152.23 527.258 1980.13 491.704 1808.04 456.138 1629.61 509.532 1505.35 633.785 1381.09 758.037 1327.7 936.474 1363.27 1108.56 1398.82 1280.64 1518.58 1423.29 1681.92 1488.12 1845.25 1552.94 2030.22 1531.23 2174.11 1430.37L2477.16 1733.43C2500 1756.26 2533.28 1765.16 2564.47 1756.81 2595.66 1748.46 2620.02 1724.1 2628.37 1692.91 2636.73 1661.72 2627.82 1628.44 2604.99 1605.6ZM1875.97 1351.42C1783.94 1351.42 1695.68 1314.86 1630.6 1249.78 1565.53 1184.7 1528.96 1096.44 1528.96 1004.41 1528.96 912.372 1565.53 824.111 1630.6 759.035 1695.68 693.96 1783.94 657.398 1875.97 657.398 1968.01 657.398 2056.28 693.956 2121.35 759.035 2186.43 824.111 2222.99 912.372 2222.99 1004.41 2222.91 1096.41 2186.33 1184.63 2121.26 1249.68 2056.21 1314.76 1967.99 1351.34 1875.97 1351.42Z" fill="#828590" fill-rule="evenodd"/></g></svg>