<svg width="950" height="1035" xmlns="http://www.w3.org/2000/svg" xmlns:xlink="http://www.w3.org/1999/xlink" overflow="hidden"><defs><clipPath id="clip0"><rect x="1725" y="475" width="950" height="1035"/></clipPath></defs><g clip-path="url(#clip0)" transform="translate(-1725 -475)"><path d="M2675 990.123 2675 475 2556.25 475 2556.25 990.123C2556.25 1016.4 2545.83 1041.59 2527.26 1060.18 2508.7 1078.75 2483.54 1089.18 2457.29 1089.18L1927.63 1089.18 2145.35 871.241 2061.43 787.244 1742.37 1106.62C1731.25 1117.76 1725 1132.87 1725 1148.62 1725 1164.38 1731.25 1179.48 1742.37 1190.62L2061.43 1510 2145.34 1425.99 1927.61 1208.05 2457.28 1208.06C2515.01 1208.06 2570.39 1185.09 2611.23 1144.22 2652.05 1103.34 2674.99 1047.91 2674.99 990.115Z" fill="#AFABAB" fill-rule="evenodd"/></g></svg>