<svg width="1856" height="1857" xmlns="http://www.w3.org/2000/svg" xmlns:xlink="http://www.w3.org/1999/xlink" overflow="hidden"><defs><clipPath id="clip0"><rect x="52" y="145" width="1856" height="1857"/></clipPath></defs><g clip-path="url(#clip0)" transform="translate(-52 -145)"><path d="M1890.06 534.349 1518.86 162.949C1507.18 151.371 1491.38 144.904 1474.93 145.001L237.6 145.001C188.368 145.001 141.169 164.566 106.354 199.385 71.554 234.217 51.9999 281.443 51.9999 330.701L51.9999 1816.3C51.9999 1865.56 71.554 1912.78 106.354 1947.62 141.169 1982.44 188.368 2002 237.6 2002L1722.4 2002C1771.63 2002 1818.83 1982.44 1853.64 1947.62 1888.45 1912.78 1908 1865.56 1908 1816.3L1908 578.302C1908.09 561.847 1901.63 546.039 1890.06 534.349ZM1227.45 268.802 1227.45 640.201 732.519 640.201 732.519 268.802ZM485.052 1878.2 485.052 1444.9C485.052 1428.49 491.571 1412.73 503.17 1401.13 514.77 1389.52 530.512 1383 546.919 1383L1413.05 1383C1429.46 1383 1445.2 1389.52 1456.8 1401.13 1468.4 1412.73 1474.92 1428.49 1474.92 1444.9L1474.92 1878.2ZM1784.25 1816.3C1784.25 1832.72 1777.73 1848.47 1766.13 1860.07 1754.53 1871.68 1738.79 1878.2 1722.39 1878.2L1598.65 1878.2 1598.65 1444.9C1598.65 1395.64 1579.1 1348.42 1544.3 1313.58 1509.48 1278.76 1462.28 1259.2 1413.05 1259.2L546.919 1259.2C497.687 1259.2 450.488 1278.76 415.673 1313.58 380.872 1348.42 361.319 1395.64 361.319 1444.9L361.319 1878.2 237.586 1878.2C221.179 1878.2 205.436 1871.68 193.837 1860.07 182.238 1848.47 175.719 1832.72 175.719 1816.3L175.719 330.702C175.719 314.287 182.238 298.536 193.837 286.929 205.436 275.324 221.179 268.802 237.586 268.802L608.786 268.802 608.786 640.201C608.786 673.03 621.824 704.521 645.022 727.746 668.234 750.96 699.708 764.001 732.519 764.001L1227.45 764.001C1260.26 764.001 1291.74 750.96 1314.95 727.746 1338.15 704.521 1351.19 673.03 1351.19 640.201L1351.19 268.802 1449.55 268.802 1784.25 603.684Z" fill="#5B9BD5" fill-rule="evenodd"/></g></svg>