<svg width="1485" height="1608" xmlns="http://www.w3.org/2000/svg" xmlns:xlink="http://www.w3.org/1999/xlink" overflow="hidden"><defs><clipPath id="clip0"><rect x="1457" y="186" width="1485" height="1608"/></clipPath></defs><g clip-path="url(#clip0)" transform="translate(-1457 -186)"><path d="M2014.5 1361C2030.81 1361 2046.46 1354.48 2057.99 1342.88 2069.52 1331.28 2076 1315.53 2076 1299.13L2076 927.874C2076 905.762 2064.28 885.336 2045.25 874.287 2026.22 863.238 2002.78 863.238 1983.75 874.287 1964.72 885.336 1953 905.762 1953 927.874L1953 1299.13C1953 1315.53 1959.48 1331.28 1971.01 1342.88 1982.54 1354.48 1998.19 1361 2014.5 1361Z" fill="#C00000" fill-rule="evenodd"/><path d="M2386 1361C2402.44 1361 2418.22 1354.48 2429.84 1342.88 2441.47 1331.28 2448 1315.53 2448 1299.13L2448 927.874C2448 905.762 2436.18 885.336 2417 874.287 2397.82 863.238 2374.18 863.238 2355 874.287 2335.82 885.336 2324 905.762 2324 927.874L2324 1299.13C2324 1315.53 2330.53 1331.28 2342.16 1342.88 2353.78 1354.48 2369.56 1361 2386 1361Z" fill="#C00000" fill-rule="evenodd"/><path d="M1583.9 618.922 1630.25 1501.03C1634.42 1580.2 1668.85 1654.74 1726.42 1709.25 1784 1763.77 1860.32 1794.11 1939.62 1794L2459.38 1794C2538.68 1794.11 2615 1763.77 2672.58 1709.25 2730.15 1654.74 2764.58 1580.2 2768.75 1501.03L2815.1 618.922 2880.13 618.922C2902.24 618.922 2922.66 607.132 2933.71 587.999 2944.76 568.865 2944.76 545.286 2933.71 526.152 2922.66 507.018 2902.24 495.229 2880.13 495.229L2508.88 495.229C2508.88 384.746 2449.91 282.66 2354.19 227.426 2258.46 172.191 2140.54 172.191 2044.81 227.426 1949.09 282.66 1890.12 384.749 1890.12 495.229L1518.87 495.229C1496.76 495.229 1476.34 507.018 1465.29 526.152 1454.24 545.286 1454.24 568.865 1465.29 587.999 1476.34 607.132 1496.76 618.922 1518.87 618.922ZM2199.5 309.689C2248.74 309.689 2295.95 329.237 2330.77 364.025 2365.57 398.829 2385.13 446.013 2385.13 495.229L2013.88 495.229C2013.88 446.013 2033.43 398.829 2068.24 364.025 2103.06 329.237 2150.27 309.689 2199.5 309.689ZM1952 618.922 2691.15 618.922 2644.99 1494.56C2642.49 1542.05 2621.82 1586.78 2587.28 1619.49 2552.74 1652.19 2506.94 1670.4 2459.36 1670.33L1939.61 1670.33C1892.03 1670.4 1846.23 1652.19 1811.69 1619.49 1777.15 1586.78 1756.49 1542.05 1753.99 1494.56L1707.83 618.922Z" fill="#C00000" fill-rule="evenodd"/></g></svg>